<mxfile host="app.diagrams.net" agent="Mozilla/5.0 (Windows NT 10.0; Win64; x64) AppleWebKit/537.36 (KHTML, like Gecko) Chrome/131.0.0.0 Safari/537.36" version="24.9.1">
  <diagram id="C5RBs43oDa-KdzZeNtuy" name="Page-1">
    <mxGraphModel dx="1702" dy="435" grid="1" gridSize="10" guides="1" tooltips="1" connect="1" arrows="1" fold="1" page="1" pageScale="1" pageWidth="827" pageHeight="1169" math="0" shadow="0">
      <root>
        <mxCell id="WIyWlLk6GJQsqaUBKTNV-0" />
        <mxCell id="WIyWlLk6GJQsqaUBKTNV-1" parent="WIyWlLk6GJQsqaUBKTNV-0" />
        <mxCell id="M7CGMbNuYNeq0SnUNNgH-6" value="ทบทวนสัญลักษณ์" style="swimlane;fontFamily=Sarabun;fontSource=https%3A%2F%2Ffonts.googleapis.com%2Fcss%3Ffamily%3DSarabun;" parent="WIyWlLk6GJQsqaUBKTNV-1" vertex="1">
          <mxGeometry x="-720" y="20" width="650" height="290" as="geometry" />
        </mxCell>
        <mxCell id="M7CGMbNuYNeq0SnUNNgH-2" value="&lt;font data-font-src=&quot;https://fonts.googleapis.com/css?family=Sarabun&quot; face=&quot;Sarabun&quot;&gt;เริ่มต้น&lt;/font&gt;" style="ellipse;whiteSpace=wrap;html=1;" parent="M7CGMbNuYNeq0SnUNNgH-6" vertex="1">
          <mxGeometry x="20" y="40" width="130" height="30" as="geometry" />
        </mxCell>
        <mxCell id="M7CGMbNuYNeq0SnUNNgH-5" value="" style="endArrow=classic;html=1;rounded=0;" parent="M7CGMbNuYNeq0SnUNNgH-6" edge="1">
          <mxGeometry width="50" height="50" relative="1" as="geometry">
            <mxPoint x="84.5" y="70" as="sourcePoint" />
            <mxPoint x="84.5" y="120" as="targetPoint" />
          </mxGeometry>
        </mxCell>
        <mxCell id="M7CGMbNuYNeq0SnUNNgH-3" value="&lt;font face=&quot;Sarabun&quot;&gt;สิ้นสุด&lt;/font&gt;" style="ellipse;whiteSpace=wrap;html=1;" parent="M7CGMbNuYNeq0SnUNNgH-6" vertex="1">
          <mxGeometry x="150" y="90" width="130" height="30" as="geometry" />
        </mxCell>
        <mxCell id="M7CGMbNuYNeq0SnUNNgH-4" value="" style="endArrow=classic;html=1;rounded=0;" parent="M7CGMbNuYNeq0SnUNNgH-6" edge="1">
          <mxGeometry width="50" height="50" relative="1" as="geometry">
            <mxPoint x="214.5" y="40" as="sourcePoint" />
            <mxPoint x="214.5" y="90" as="targetPoint" />
          </mxGeometry>
        </mxCell>
        <mxCell id="mvioNwK95yMqdUQ73LqQ-0" value="กระบวนการ" style="rounded=0;whiteSpace=wrap;html=1;fontFamily=Sarabun;fontSource=https%3A%2F%2Ffonts.googleapis.com%2Fcss%3Ffamily%3DSarabun;" parent="M7CGMbNuYNeq0SnUNNgH-6" vertex="1">
          <mxGeometry x="320" y="70" width="120" height="30" as="geometry" />
        </mxCell>
        <mxCell id="mvioNwK95yMqdUQ73LqQ-1" value="" style="endArrow=classic;html=1;rounded=0;" parent="M7CGMbNuYNeq0SnUNNgH-6" edge="1">
          <mxGeometry width="50" height="50" relative="1" as="geometry">
            <mxPoint x="379" y="40" as="sourcePoint" />
            <mxPoint x="379.5" y="70" as="targetPoint" />
          </mxGeometry>
        </mxCell>
        <mxCell id="mvioNwK95yMqdUQ73LqQ-2" value="" style="endArrow=classic;html=1;rounded=0;" parent="M7CGMbNuYNeq0SnUNNgH-6" edge="1">
          <mxGeometry width="50" height="50" relative="1" as="geometry">
            <mxPoint x="379.75" y="100" as="sourcePoint" />
            <mxPoint x="380.25" y="130" as="targetPoint" />
          </mxGeometry>
        </mxCell>
        <mxCell id="mvioNwK95yMqdUQ73LqQ-3" value="ประโยคเงื่อนไข" style="rhombus;whiteSpace=wrap;html=1;fontFamily=Sarabun;fontSource=https%3A%2F%2Ffonts.googleapis.com%2Fcss%3Ffamily%3DSarabun;" parent="M7CGMbNuYNeq0SnUNNgH-6" vertex="1">
          <mxGeometry x="490" y="60" width="100" height="60" as="geometry" />
        </mxCell>
        <mxCell id="mvioNwK95yMqdUQ73LqQ-4" value="" style="endArrow=classic;html=1;rounded=0;" parent="M7CGMbNuYNeq0SnUNNgH-6" edge="1">
          <mxGeometry width="50" height="50" relative="1" as="geometry">
            <mxPoint x="539.71" y="30" as="sourcePoint" />
            <mxPoint x="540.21" y="60" as="targetPoint" />
          </mxGeometry>
        </mxCell>
        <mxCell id="mvioNwK95yMqdUQ73LqQ-5" value="" style="endArrow=classic;html=1;rounded=0;" parent="M7CGMbNuYNeq0SnUNNgH-6" edge="1">
          <mxGeometry width="50" height="50" relative="1" as="geometry">
            <mxPoint x="539.71" y="120" as="sourcePoint" />
            <mxPoint x="540" y="175" as="targetPoint" />
          </mxGeometry>
        </mxCell>
        <mxCell id="mvioNwK95yMqdUQ73LqQ-7" value="จริง" style="edgeLabel;html=1;align=center;verticalAlign=middle;resizable=0;points=[];fontFamily=Sarabun;fontSource=https%3A%2F%2Ffonts.googleapis.com%2Fcss%3Ffamily%3DSarabun;" parent="mvioNwK95yMqdUQ73LqQ-5" vertex="1" connectable="0">
          <mxGeometry x="-0.4142" y="-1" relative="1" as="geometry">
            <mxPoint as="offset" />
          </mxGeometry>
        </mxCell>
        <mxCell id="mvioNwK95yMqdUQ73LqQ-6" value="" style="endArrow=classic;html=1;rounded=0;exitX=1;exitY=0.5;exitDx=0;exitDy=0;" parent="M7CGMbNuYNeq0SnUNNgH-6" source="mvioNwK95yMqdUQ73LqQ-3" edge="1">
          <mxGeometry width="50" height="50" relative="1" as="geometry">
            <mxPoint x="620" y="95" as="sourcePoint" />
            <mxPoint x="610" y="175" as="targetPoint" />
            <Array as="points">
              <mxPoint x="610" y="90" />
            </Array>
          </mxGeometry>
        </mxCell>
        <mxCell id="mvioNwK95yMqdUQ73LqQ-8" value="&lt;font data-font-src=&quot;https://fonts.googleapis.com/css?family=Sarabun&quot; face=&quot;Sarabun&quot;&gt;เท็จ&lt;/font&gt;" style="edgeLabel;html=1;align=center;verticalAlign=middle;resizable=0;points=[];" parent="mvioNwK95yMqdUQ73LqQ-6" vertex="1" connectable="0">
          <mxGeometry x="-0.0019" y="-2" relative="1" as="geometry">
            <mxPoint as="offset" />
          </mxGeometry>
        </mxCell>
        <mxCell id="mvioNwK95yMqdUQ73LqQ-9" value="&lt;font data-font-src=&quot;https://fonts.googleapis.com/css?family=Sarabun&quot; face=&quot;Sarabun&quot;&gt;ฟังก์ชัน/โมดูล&lt;/font&gt;" style="shape=process;whiteSpace=wrap;html=1;backgroundOutline=1;" parent="M7CGMbNuYNeq0SnUNNgH-6" vertex="1">
          <mxGeometry x="25" y="180" width="120" height="30" as="geometry" />
        </mxCell>
        <mxCell id="mvioNwK95yMqdUQ73LqQ-11" value="" style="endArrow=classic;html=1;rounded=0;" parent="M7CGMbNuYNeq0SnUNNgH-6" edge="1">
          <mxGeometry width="50" height="50" relative="1" as="geometry">
            <mxPoint x="84.70999999999998" y="150" as="sourcePoint" />
            <mxPoint x="85.20999999999998" y="180" as="targetPoint" />
          </mxGeometry>
        </mxCell>
        <mxCell id="mvioNwK95yMqdUQ73LqQ-12" value="" style="endArrow=classic;html=1;rounded=0;" parent="M7CGMbNuYNeq0SnUNNgH-6" edge="1">
          <mxGeometry width="50" height="50" relative="1" as="geometry">
            <mxPoint x="84.70999999999998" y="210" as="sourcePoint" />
            <mxPoint x="85.20999999999998" y="240" as="targetPoint" />
          </mxGeometry>
        </mxCell>
        <mxCell id="mvioNwK95yMqdUQ73LqQ-13" value="" style="strokeWidth=2;html=1;shape=mxgraph.flowchart.start_2;whiteSpace=wrap;" parent="M7CGMbNuYNeq0SnUNNgH-6" vertex="1">
          <mxGeometry x="205" y="185" width="20" height="20" as="geometry" />
        </mxCell>
        <mxCell id="mvioNwK95yMqdUQ73LqQ-16" value="" style="endArrow=classic;html=1;rounded=0;" parent="M7CGMbNuYNeq0SnUNNgH-6" edge="1">
          <mxGeometry width="50" height="50" relative="1" as="geometry">
            <mxPoint x="214.70999999999998" y="155" as="sourcePoint" />
            <mxPoint x="215.20999999999998" y="185" as="targetPoint" />
          </mxGeometry>
        </mxCell>
        <mxCell id="mvioNwK95yMqdUQ73LqQ-17" value="" style="endArrow=classic;html=1;rounded=0;entryX=0;entryY=0.5;entryDx=0;entryDy=0;entryPerimeter=0;" parent="M7CGMbNuYNeq0SnUNNgH-6" target="mvioNwK95yMqdUQ73LqQ-13" edge="1">
          <mxGeometry width="50" height="50" relative="1" as="geometry">
            <mxPoint x="189.99999999999997" y="155" as="sourcePoint" />
            <mxPoint x="190.49999999999997" y="185" as="targetPoint" />
            <Array as="points">
              <mxPoint x="190" y="180" />
            </Array>
          </mxGeometry>
        </mxCell>
        <mxCell id="mvioNwK95yMqdUQ73LqQ-18" value="" style="endArrow=classic;html=1;rounded=0;entryX=1;entryY=0.5;entryDx=0;entryDy=0;entryPerimeter=0;" parent="M7CGMbNuYNeq0SnUNNgH-6" target="mvioNwK95yMqdUQ73LqQ-13" edge="1">
          <mxGeometry width="50" height="50" relative="1" as="geometry">
            <mxPoint x="239.99999999999997" y="155" as="sourcePoint" />
            <mxPoint x="240.49999999999997" y="185" as="targetPoint" />
            <Array as="points">
              <mxPoint x="240" y="180" />
            </Array>
          </mxGeometry>
        </mxCell>
        <mxCell id="mvioNwK95yMqdUQ73LqQ-19" value="" style="endArrow=classic;html=1;rounded=0;" parent="M7CGMbNuYNeq0SnUNNgH-6" edge="1">
          <mxGeometry width="50" height="50" relative="1" as="geometry">
            <mxPoint x="214.70999999999998" y="205" as="sourcePoint" />
            <mxPoint x="215.20999999999998" y="235" as="targetPoint" />
          </mxGeometry>
        </mxCell>
        <mxCell id="mvioNwK95yMqdUQ73LqQ-20" value="&lt;font data-font-src=&quot;https://fonts.googleapis.com/css?family=Sarabun&quot; face=&quot;Sarabun&quot;&gt;ตัวเชื่อม&lt;/font&gt;" style="text;html=1;align=center;verticalAlign=middle;resizable=0;points=[];autosize=1;strokeColor=none;fillColor=none;" parent="M7CGMbNuYNeq0SnUNNgH-6" vertex="1">
          <mxGeometry x="220" y="190" width="60" height="30" as="geometry" />
        </mxCell>
        <mxCell id="mvioNwK95yMqdUQ73LqQ-25" value="" style="endArrow=classic;html=1;rounded=0;" parent="M7CGMbNuYNeq0SnUNNgH-6" edge="1">
          <mxGeometry width="50" height="50" relative="1" as="geometry">
            <mxPoint x="353.71" y="165" as="sourcePoint" />
            <mxPoint x="354.21" y="195" as="targetPoint" />
          </mxGeometry>
        </mxCell>
        <mxCell id="mvioNwK95yMqdUQ73LqQ-21" value="" style="verticalLabelPosition=bottom;verticalAlign=top;html=1;shape=offPageConnector;rounded=0;size=0.5;" parent="M7CGMbNuYNeq0SnUNNgH-6" vertex="1">
          <mxGeometry x="339" y="195" width="30" height="30" as="geometry" />
        </mxCell>
        <mxCell id="mvioNwK95yMqdUQ73LqQ-26" value="" style="endArrow=classic;html=1;rounded=0;" parent="M7CGMbNuYNeq0SnUNNgH-6" edge="1">
          <mxGeometry width="50" height="50" relative="1" as="geometry">
            <mxPoint x="405.71" y="195" as="sourcePoint" />
            <mxPoint x="406.21" y="225" as="targetPoint" />
          </mxGeometry>
        </mxCell>
        <mxCell id="mvioNwK95yMqdUQ73LqQ-27" value="" style="verticalLabelPosition=bottom;verticalAlign=top;html=1;shape=offPageConnector;rounded=0;size=0.5;" parent="M7CGMbNuYNeq0SnUNNgH-6" vertex="1">
          <mxGeometry x="391" y="165" width="30" height="30" as="geometry" />
        </mxCell>
        <mxCell id="mvioNwK95yMqdUQ73LqQ-28" value="หน้าต่อไป" style="text;html=1;align=center;verticalAlign=middle;resizable=0;points=[];autosize=1;strokeColor=none;fillColor=none;fontFamily=Sarabun;fontSource=https%3A%2F%2Ffonts.googleapis.com%2Fcss%3Ffamily%3DSarabun;" parent="M7CGMbNuYNeq0SnUNNgH-6" vertex="1">
          <mxGeometry x="345" y="220" width="70" height="30" as="geometry" />
        </mxCell>
        <mxCell id="mvioNwK95yMqdUQ73LqQ-29" value="ก" style="text;html=1;align=center;verticalAlign=middle;resizable=0;points=[];autosize=1;strokeColor=none;fillColor=none;fontFamily=Sarabun;fontSource=https%3A%2F%2Ffonts.googleapis.com%2Fcss%3Ffamily%3DSarabun;" parent="M7CGMbNuYNeq0SnUNNgH-6" vertex="1">
          <mxGeometry x="339" y="190" width="30" height="30" as="geometry" />
        </mxCell>
        <mxCell id="mvioNwK95yMqdUQ73LqQ-30" value="ก" style="text;html=1;align=center;verticalAlign=middle;resizable=0;points=[];autosize=1;strokeColor=none;fillColor=none;fontFamily=Sarabun;fontSource=https%3A%2F%2Ffonts.googleapis.com%2Fcss%3Ffamily%3DSarabun;" parent="M7CGMbNuYNeq0SnUNNgH-6" vertex="1">
          <mxGeometry x="391" y="160" width="30" height="30" as="geometry" />
        </mxCell>
        <mxCell id="mvioNwK95yMqdUQ73LqQ-32" value="แสดงผล/รับค่า" style="shape=parallelogram;perimeter=parallelogramPerimeter;whiteSpace=wrap;html=1;fixedSize=1;fontFamily=Sarabun;fontSource=https%3A%2F%2Ffonts.googleapis.com%2Fcss%3Ffamily%3DSarabun;" parent="M7CGMbNuYNeq0SnUNNgH-6" vertex="1">
          <mxGeometry x="450" y="210" width="120" height="30" as="geometry" />
        </mxCell>
        <mxCell id="mvioNwK95yMqdUQ73LqQ-33" value="" style="endArrow=classic;html=1;rounded=0;" parent="M7CGMbNuYNeq0SnUNNgH-6" edge="1">
          <mxGeometry width="50" height="50" relative="1" as="geometry">
            <mxPoint x="509.71" y="180" as="sourcePoint" />
            <mxPoint x="510.21" y="210" as="targetPoint" />
          </mxGeometry>
        </mxCell>
        <mxCell id="mvioNwK95yMqdUQ73LqQ-34" value="" style="endArrow=classic;html=1;rounded=0;" parent="M7CGMbNuYNeq0SnUNNgH-6" edge="1">
          <mxGeometry width="50" height="50" relative="1" as="geometry">
            <mxPoint x="509.71" y="240" as="sourcePoint" />
            <mxPoint x="510.21" y="270" as="targetPoint" />
          </mxGeometry>
        </mxCell>
        <mxCell id="mvioNwK95yMqdUQ73LqQ-36" value="แก้ไขโจทย์ปัญหา" style="swimlane;fontFamily=Sarabun;fontSource=https%3A%2F%2Ffonts.googleapis.com%2Fcss%3Ffamily%3DSarabun;" parent="WIyWlLk6GJQsqaUBKTNV-1" vertex="1">
          <mxGeometry x="-820" y="570" width="800" height="2850" as="geometry" />
        </mxCell>
        <mxCell id="27zhUVx7xUESH2kHtErv-2" value="" style="edgeStyle=orthogonalEdgeStyle;rounded=0;orthogonalLoop=1;jettySize=auto;html=1;" parent="mvioNwK95yMqdUQ73LqQ-36" source="mvioNwK95yMqdUQ73LqQ-35" target="27zhUVx7xUESH2kHtErv-1" edge="1">
          <mxGeometry relative="1" as="geometry" />
        </mxCell>
        <mxCell id="mvioNwK95yMqdUQ73LqQ-35" value="&lt;font data-font-src=&quot;https://fonts.googleapis.com/css?family=Sarabun&quot; face=&quot;Sarabun&quot;&gt;เริ่มต้น&lt;/font&gt;" style="ellipse;whiteSpace=wrap;html=1;" parent="mvioNwK95yMqdUQ73LqQ-36" vertex="1">
          <mxGeometry x="206.5" y="50" width="130" height="30" as="geometry" />
        </mxCell>
        <mxCell id="mvioNwK95yMqdUQ73LqQ-69" value="&lt;font face=&quot;Sarabun&quot;&gt;สิ้นสุด&lt;/font&gt;" style="ellipse;whiteSpace=wrap;html=1;" parent="mvioNwK95yMqdUQ73LqQ-36" vertex="1">
          <mxGeometry x="206.5" y="2750" width="130" height="30" as="geometry" />
        </mxCell>
        <mxCell id="27zhUVx7xUESH2kHtErv-4" value="" style="edgeStyle=orthogonalEdgeStyle;rounded=0;orthogonalLoop=1;jettySize=auto;html=1;" parent="mvioNwK95yMqdUQ73LqQ-36" source="27zhUVx7xUESH2kHtErv-1" target="27zhUVx7xUESH2kHtErv-3" edge="1">
          <mxGeometry relative="1" as="geometry" />
        </mxCell>
        <mxCell id="27zhUVx7xUESH2kHtErv-1" value="เลือกเว็บไซต์โพสหางาน" style="rounded=0;whiteSpace=wrap;html=1;fontFamily=Sarabun;fontSource=https%3A%2F%2Ffonts.googleapis.com%2Fcss%3Ffamily%3DSarabun;" parent="mvioNwK95yMqdUQ73LqQ-36" vertex="1">
          <mxGeometry x="206.5" y="100" width="130" height="30" as="geometry" />
        </mxCell>
        <mxCell id="27zhUVx7xUESH2kHtErv-9" value="" style="edgeStyle=orthogonalEdgeStyle;rounded=0;orthogonalLoop=1;jettySize=auto;html=1;entryX=0.5;entryY=0;entryDx=0;entryDy=0;entryPerimeter=0;" parent="mvioNwK95yMqdUQ73LqQ-36" source="27zhUVx7xUESH2kHtErv-3" target="27zhUVx7xUESH2kHtErv-8" edge="1">
          <mxGeometry relative="1" as="geometry" />
        </mxCell>
        <mxCell id="27zhUVx7xUESH2kHtErv-3" value="โพสหางาน" style="rounded=0;whiteSpace=wrap;html=1;fontFamily=Sarabun;fontSource=https%3A%2F%2Ffonts.googleapis.com%2Fcss%3Ffamily%3DSarabun;" parent="mvioNwK95yMqdUQ73LqQ-36" vertex="1">
          <mxGeometry x="219" y="150" width="105" height="30" as="geometry" />
        </mxCell>
        <mxCell id="27zhUVx7xUESH2kHtErv-13" value="" style="edgeStyle=orthogonalEdgeStyle;rounded=0;orthogonalLoop=1;jettySize=auto;html=1;" parent="mvioNwK95yMqdUQ73LqQ-36" source="27zhUVx7xUESH2kHtErv-6" target="27zhUVx7xUESH2kHtErv-12" edge="1">
          <mxGeometry relative="1" as="geometry" />
        </mxCell>
        <mxCell id="27zhUVx7xUESH2kHtErv-6" value="เช็คโพส" style="rounded=0;whiteSpace=wrap;html=1;fontFamily=Sarabun;fontSource=https%3A%2F%2Ffonts.googleapis.com%2Fcss%3Ffamily%3DSarabun;" parent="mvioNwK95yMqdUQ73LqQ-36" vertex="1">
          <mxGeometry x="219" y="240" width="105" height="30" as="geometry" />
        </mxCell>
        <mxCell id="27zhUVx7xUESH2kHtErv-10" value="" style="edgeStyle=orthogonalEdgeStyle;rounded=0;orthogonalLoop=1;jettySize=auto;html=1;" parent="mvioNwK95yMqdUQ73LqQ-36" source="27zhUVx7xUESH2kHtErv-8" target="27zhUVx7xUESH2kHtErv-6" edge="1">
          <mxGeometry relative="1" as="geometry" />
        </mxCell>
        <mxCell id="27zhUVx7xUESH2kHtErv-8" value="" style="strokeWidth=2;html=1;shape=mxgraph.flowchart.start_2;whiteSpace=wrap;" parent="mvioNwK95yMqdUQ73LqQ-36" vertex="1">
          <mxGeometry x="261.5" y="200" width="20" height="20" as="geometry" />
        </mxCell>
        <mxCell id="xFiAi5gTi5LO_3J-mWxw-1" value="" style="edgeStyle=orthogonalEdgeStyle;rounded=0;orthogonalLoop=1;jettySize=auto;html=1;" parent="mvioNwK95yMqdUQ73LqQ-36" source="27zhUVx7xUESH2kHtErv-12" target="27zhUVx7xUESH2kHtErv-14" edge="1">
          <mxGeometry relative="1" as="geometry" />
        </mxCell>
        <mxCell id="27zhUVx7xUESH2kHtErv-12" value="มีลูกค้าติดต่อจ้าง" style="rhombus;whiteSpace=wrap;html=1;fontFamily=Sarabun;fontSource=https%3A%2F%2Ffonts.googleapis.com%2Fcss%3Ffamily%3DSarabun;" parent="mvioNwK95yMqdUQ73LqQ-36" vertex="1">
          <mxGeometry x="221.5" y="290" width="100" height="60" as="geometry" />
        </mxCell>
        <mxCell id="itq3o5YylGLCOzRTKp7v-9" value="" style="edgeStyle=orthogonalEdgeStyle;rounded=0;orthogonalLoop=1;jettySize=auto;html=1;" parent="mvioNwK95yMqdUQ73LqQ-36" source="27zhUVx7xUESH2kHtErv-14" target="itq3o5YylGLCOzRTKp7v-8" edge="1">
          <mxGeometry relative="1" as="geometry" />
        </mxCell>
        <mxCell id="27zhUVx7xUESH2kHtErv-14" value="สอบถามประวัติลูกค้าคร่าวๆ ผ่านการตอบแชท" style="rounded=0;whiteSpace=wrap;html=1;fontFamily=Sarabun;fontSource=https%3A%2F%2Ffonts.googleapis.com%2Fcss%3Ffamily%3DSarabun;" parent="mvioNwK95yMqdUQ73LqQ-36" vertex="1">
          <mxGeometry x="192.75" y="380" width="157.5" height="50" as="geometry" />
        </mxCell>
        <mxCell id="xFiAi5gTi5LO_3J-mWxw-0" value="" style="endArrow=classic;html=1;rounded=0;exitX=0;exitY=0.5;exitDx=0;exitDy=0;entryX=0;entryY=0.5;entryDx=0;entryDy=0;entryPerimeter=0;edgeStyle=orthogonalEdgeStyle;" parent="mvioNwK95yMqdUQ73LqQ-36" source="27zhUVx7xUESH2kHtErv-12" target="27zhUVx7xUESH2kHtErv-8" edge="1">
          <mxGeometry width="50" height="50" relative="1" as="geometry">
            <mxPoint x="251.5" y="220" as="sourcePoint" />
            <mxPoint x="301.5" y="170" as="targetPoint" />
            <Array as="points">
              <mxPoint x="201.5" y="320" />
              <mxPoint x="201.5" y="210" />
            </Array>
          </mxGeometry>
        </mxCell>
        <mxCell id="itq3o5YylGLCOzRTKp7v-1" value="" style="edgeStyle=orthogonalEdgeStyle;rounded=0;orthogonalLoop=1;jettySize=auto;html=1;" parent="mvioNwK95yMqdUQ73LqQ-36" source="xFiAi5gTi5LO_3J-mWxw-2" target="itq3o5YylGLCOzRTKp7v-0" edge="1">
          <mxGeometry relative="1" as="geometry" />
        </mxCell>
        <mxCell id="itq3o5YylGLCOzRTKp7v-3" value="" style="edgeStyle=orthogonalEdgeStyle;rounded=0;orthogonalLoop=1;jettySize=auto;html=1;" parent="mvioNwK95yMqdUQ73LqQ-36" source="xFiAi5gTi5LO_3J-mWxw-2" edge="1">
          <mxGeometry relative="1" as="geometry">
            <mxPoint x="271.5344827586207" y="630" as="targetPoint" />
          </mxGeometry>
        </mxCell>
        <mxCell id="xFiAi5gTi5LO_3J-mWxw-2" value="ลูกค้าน่าเชื่อถือ" style="rhombus;whiteSpace=wrap;html=1;fontFamily=Sarabun;fontSource=https%3A%2F%2Ffonts.googleapis.com%2Fcss%3Ffamily%3DSarabun;" parent="mvioNwK95yMqdUQ73LqQ-36" vertex="1">
          <mxGeometry x="221.5" y="550" width="100" height="60" as="geometry" />
        </mxCell>
        <mxCell id="itq3o5YylGLCOzRTKp7v-0" value="" style="strokeWidth=2;html=1;shape=mxgraph.flowchart.start_2;whiteSpace=wrap;" parent="mvioNwK95yMqdUQ73LqQ-36" vertex="1">
          <mxGeometry x="611.5" y="570" width="20" height="20" as="geometry" />
        </mxCell>
        <mxCell id="itq3o5YylGLCOzRTKp7v-10" value="" style="edgeStyle=orthogonalEdgeStyle;rounded=0;orthogonalLoop=1;jettySize=auto;html=1;" parent="mvioNwK95yMqdUQ73LqQ-36" source="itq3o5YylGLCOzRTKp7v-8" target="xFiAi5gTi5LO_3J-mWxw-2" edge="1">
          <mxGeometry relative="1" as="geometry" />
        </mxCell>
        <mxCell id="itq3o5YylGLCOzRTKp7v-8" value="สอบถามรายละเอียดเว็บที่ต้องการคร่าวๆ ผ่านการตอบแชท" style="rounded=0;whiteSpace=wrap;html=1;fontFamily=Sarabun;fontSource=https%3A%2F%2Ffonts.googleapis.com%2Fcss%3Ffamily%3DSarabun;" parent="mvioNwK95yMqdUQ73LqQ-36" vertex="1">
          <mxGeometry x="190" y="460" width="163" height="60" as="geometry" />
        </mxCell>
        <mxCell id="itq3o5YylGLCOzRTKp7v-19" value="" style="edgeStyle=orthogonalEdgeStyle;rounded=0;orthogonalLoop=1;jettySize=auto;html=1;" parent="mvioNwK95yMqdUQ73LqQ-36" source="itq3o5YylGLCOzRTKp7v-13" target="itq3o5YylGLCOzRTKp7v-17" edge="1">
          <mxGeometry relative="1" as="geometry" />
        </mxCell>
        <mxCell id="itq3o5YylGLCOzRTKp7v-13" value="นัดวันลูกค้าคุยรายละเอียด&lt;div&gt;ผ่านทางออนไลน์&lt;/div&gt;" style="rounded=0;whiteSpace=wrap;html=1;fontFamily=Sarabun;fontSource=https%3A%2F%2Ffonts.googleapis.com%2Fcss%3Ffamily%3DSarabun;" parent="mvioNwK95yMqdUQ73LqQ-36" vertex="1">
          <mxGeometry x="204" y="775" width="135" height="50" as="geometry" />
        </mxCell>
        <mxCell id="itq3o5YylGLCOzRTKp7v-24" value="" style="edgeStyle=orthogonalEdgeStyle;rounded=0;orthogonalLoop=1;jettySize=auto;html=1;" parent="mvioNwK95yMqdUQ73LqQ-36" source="itq3o5YylGLCOzRTKp7v-15" target="itq3o5YylGLCOzRTKp7v-22" edge="1">
          <mxGeometry relative="1" as="geometry" />
        </mxCell>
        <mxCell id="itq3o5YylGLCOzRTKp7v-15" value="&lt;font style=&quot;font-size: 10px;&quot;&gt;เว็บที่ลูกค้าต้องการ&lt;/font&gt;&lt;div&gt;&lt;font style=&quot;font-size: 10px;&quot;&gt;สามารถเป็นไปได้&lt;/font&gt;&lt;/div&gt;" style="rhombus;whiteSpace=wrap;html=1;fontFamily=Sarabun;fontSource=https%3A%2F%2Ffonts.googleapis.com%2Fcss%3Ffamily%3DSarabun;" parent="mvioNwK95yMqdUQ73LqQ-36" vertex="1">
          <mxGeometry x="196.5" y="630" width="150" height="70" as="geometry" />
        </mxCell>
        <mxCell id="itq3o5YylGLCOzRTKp7v-21" value="" style="edgeStyle=orthogonalEdgeStyle;rounded=0;orthogonalLoop=1;jettySize=auto;html=1;" parent="mvioNwK95yMqdUQ73LqQ-36" source="itq3o5YylGLCOzRTKp7v-17" target="itq3o5YylGLCOzRTKp7v-20" edge="1">
          <mxGeometry relative="1" as="geometry" />
        </mxCell>
        <mxCell id="itq3o5YylGLCOzRTKp7v-17" value="รอถึงวันนัด" style="rounded=0;whiteSpace=wrap;html=1;" parent="mvioNwK95yMqdUQ73LqQ-36" vertex="1">
          <mxGeometry x="202.75" y="855" width="137.5" height="40" as="geometry" />
        </mxCell>
        <mxCell id="itq3o5YylGLCOzRTKp7v-26" value="" style="edgeStyle=orthogonalEdgeStyle;rounded=0;orthogonalLoop=1;jettySize=auto;html=1;" parent="mvioNwK95yMqdUQ73LqQ-36" source="itq3o5YylGLCOzRTKp7v-20" target="itq3o5YylGLCOzRTKp7v-25" edge="1">
          <mxGeometry relative="1" as="geometry" />
        </mxCell>
        <mxCell id="itq3o5YylGLCOzRTKp7v-20" value="ติดต่อลูกค้าคุยรายละเอียด" style="rounded=0;whiteSpace=wrap;html=1;" parent="mvioNwK95yMqdUQ73LqQ-36" vertex="1">
          <mxGeometry x="202.75" y="925" width="137.5" height="40" as="geometry" />
        </mxCell>
        <mxCell id="itq3o5YylGLCOzRTKp7v-23" value="" style="edgeStyle=orthogonalEdgeStyle;rounded=0;orthogonalLoop=1;jettySize=auto;html=1;entryX=0.5;entryY=0;entryDx=0;entryDy=0;" parent="mvioNwK95yMqdUQ73LqQ-36" source="itq3o5YylGLCOzRTKp7v-22" target="itq3o5YylGLCOzRTKp7v-13" edge="1">
          <mxGeometry relative="1" as="geometry" />
        </mxCell>
        <mxCell id="itq3o5YylGLCOzRTKp7v-22" value="" style="strokeWidth=2;html=1;shape=mxgraph.flowchart.start_2;whiteSpace=wrap;" parent="mvioNwK95yMqdUQ73LqQ-36" vertex="1">
          <mxGeometry x="261.5" y="725" width="20" height="20" as="geometry" />
        </mxCell>
        <mxCell id="itq3o5YylGLCOzRTKp7v-30" value="" style="edgeStyle=orthogonalEdgeStyle;rounded=0;orthogonalLoop=1;jettySize=auto;html=1;" parent="mvioNwK95yMqdUQ73LqQ-36" source="itq3o5YylGLCOzRTKp7v-25" target="itq3o5YylGLCOzRTKp7v-29" edge="1">
          <mxGeometry relative="1" as="geometry" />
        </mxCell>
        <mxCell id="itq3o5YylGLCOzRTKp7v-25" value="ลูกค้าสะดวกคุย" style="rhombus;whiteSpace=wrap;html=1;fontFamily=Sarabun;fontSource=https%3A%2F%2Ffonts.googleapis.com%2Fcss%3Ffamily%3DSarabun;" parent="mvioNwK95yMqdUQ73LqQ-36" vertex="1">
          <mxGeometry x="221.5" y="990" width="100" height="60" as="geometry" />
        </mxCell>
        <mxCell id="itq3o5YylGLCOzRTKp7v-32" value="" style="edgeStyle=orthogonalEdgeStyle;rounded=0;orthogonalLoop=1;jettySize=auto;html=1;" parent="mvioNwK95yMqdUQ73LqQ-36" source="itq3o5YylGLCOzRTKp7v-29" target="itq3o5YylGLCOzRTKp7v-31" edge="1">
          <mxGeometry relative="1" as="geometry" />
        </mxCell>
        <mxCell id="itq3o5YylGLCOzRTKp7v-29" value="สอบถามเป้าหมายของเว็บไซต์" style="rounded=0;whiteSpace=wrap;html=1;" parent="mvioNwK95yMqdUQ73LqQ-36" vertex="1">
          <mxGeometry x="202.75" y="1080" width="137.5" height="40" as="geometry" />
        </mxCell>
        <mxCell id="itq3o5YylGLCOzRTKp7v-34" value="" style="edgeStyle=orthogonalEdgeStyle;rounded=0;orthogonalLoop=1;jettySize=auto;html=1;" parent="mvioNwK95yMqdUQ73LqQ-36" source="itq3o5YylGLCOzRTKp7v-31" target="itq3o5YylGLCOzRTKp7v-33" edge="1">
          <mxGeometry relative="1" as="geometry" />
        </mxCell>
        <mxCell id="itq3o5YylGLCOzRTKp7v-31" value="สอบถามเนื้อหาของเว็บไซต์" style="rounded=0;whiteSpace=wrap;html=1;" parent="mvioNwK95yMqdUQ73LqQ-36" vertex="1">
          <mxGeometry x="202.75" y="1150" width="137.5" height="40" as="geometry" />
        </mxCell>
        <mxCell id="itq3o5YylGLCOzRTKp7v-36" value="" style="edgeStyle=orthogonalEdgeStyle;rounded=0;orthogonalLoop=1;jettySize=auto;html=1;" parent="mvioNwK95yMqdUQ73LqQ-36" source="itq3o5YylGLCOzRTKp7v-33" target="itq3o5YylGLCOzRTKp7v-35" edge="1">
          <mxGeometry relative="1" as="geometry" />
        </mxCell>
        <mxCell id="itq3o5YylGLCOzRTKp7v-33" value="สอบถามฟีเจอร์ที่ต้องการของเว็บไซต์" style="rounded=0;whiteSpace=wrap;html=1;" parent="mvioNwK95yMqdUQ73LqQ-36" vertex="1">
          <mxGeometry x="202.75" y="1220" width="137.5" height="40" as="geometry" />
        </mxCell>
        <mxCell id="itq3o5YylGLCOzRTKp7v-38" value="" style="edgeStyle=orthogonalEdgeStyle;rounded=0;orthogonalLoop=1;jettySize=auto;html=1;" parent="mvioNwK95yMqdUQ73LqQ-36" source="itq3o5YylGLCOzRTKp7v-35" target="itq3o5YylGLCOzRTKp7v-37" edge="1">
          <mxGeometry relative="1" as="geometry" />
        </mxCell>
        <mxCell id="itq3o5YylGLCOzRTKp7v-35" value="สอบถามฟีเจอร์ที่ต้องการของเว็บไซต์" style="rounded=0;whiteSpace=wrap;html=1;" parent="mvioNwK95yMqdUQ73LqQ-36" vertex="1">
          <mxGeometry x="202.75" y="1290" width="137.5" height="40" as="geometry" />
        </mxCell>
        <mxCell id="itq3o5YylGLCOzRTKp7v-97" value="" style="edgeStyle=orthogonalEdgeStyle;rounded=0;orthogonalLoop=1;jettySize=auto;html=1;" parent="mvioNwK95yMqdUQ73LqQ-36" source="itq3o5YylGLCOzRTKp7v-37" target="itq3o5YylGLCOzRTKp7v-96" edge="1">
          <mxGeometry relative="1" as="geometry" />
        </mxCell>
        <mxCell id="itq3o5YylGLCOzRTKp7v-37" value="สอบถามดีไซต์ต้องการของเว็บไซต์" style="rounded=0;whiteSpace=wrap;html=1;" parent="mvioNwK95yMqdUQ73LqQ-36" vertex="1">
          <mxGeometry x="202.75" y="1360" width="137.5" height="40" as="geometry" />
        </mxCell>
        <mxCell id="itq3o5YylGLCOzRTKp7v-59" value="" style="edgeStyle=orthogonalEdgeStyle;rounded=0;orthogonalLoop=1;jettySize=auto;html=1;" parent="mvioNwK95yMqdUQ73LqQ-36" source="itq3o5YylGLCOzRTKp7v-51" target="itq3o5YylGLCOzRTKp7v-57" edge="1">
          <mxGeometry relative="1" as="geometry" />
        </mxCell>
        <mxCell id="itq3o5YylGLCOzRTKp7v-73" value="" style="edgeStyle=orthogonalEdgeStyle;rounded=0;orthogonalLoop=1;jettySize=auto;html=1;" parent="mvioNwK95yMqdUQ73LqQ-36" source="itq3o5YylGLCOzRTKp7v-51" target="itq3o5YylGLCOzRTKp7v-72" edge="1">
          <mxGeometry relative="1" as="geometry" />
        </mxCell>
        <mxCell id="itq3o5YylGLCOzRTKp7v-51" value="ลูกค้าตกลง" style="rhombus;whiteSpace=wrap;html=1;fontFamily=Sarabun;fontSource=https%3A%2F%2Ffonts.googleapis.com%2Fcss%3Ffamily%3DSarabun;" parent="mvioNwK95yMqdUQ73LqQ-36" vertex="1">
          <mxGeometry x="222.13" y="1560" width="100" height="60" as="geometry" />
        </mxCell>
        <mxCell id="itq3o5YylGLCOzRTKp7v-95" value="" style="edgeStyle=orthogonalEdgeStyle;rounded=0;orthogonalLoop=1;jettySize=auto;html=1;" parent="mvioNwK95yMqdUQ73LqQ-36" source="itq3o5YylGLCOzRTKp7v-53" target="itq3o5YylGLCOzRTKp7v-51" edge="1">
          <mxGeometry relative="1" as="geometry" />
        </mxCell>
        <mxCell id="itq3o5YylGLCOzRTKp7v-53" value="เสนอราคา" style="rounded=0;whiteSpace=wrap;html=1;" parent="mvioNwK95yMqdUQ73LqQ-36" vertex="1">
          <mxGeometry x="222" y="1500" width="98.75" height="30" as="geometry" />
        </mxCell>
        <mxCell id="itq3o5YylGLCOzRTKp7v-60" value="" style="edgeStyle=orthogonalEdgeStyle;rounded=0;orthogonalLoop=1;jettySize=auto;html=1;" parent="mvioNwK95yMqdUQ73LqQ-36" source="itq3o5YylGLCOzRTKp7v-57" target="itq3o5YylGLCOzRTKp7v-58" edge="1">
          <mxGeometry relative="1" as="geometry" />
        </mxCell>
        <mxCell id="itq3o5YylGLCOzRTKp7v-57" value="สอบถามราคาที่ลูกค้าต้องการ" style="rounded=0;whiteSpace=wrap;html=1;" parent="mvioNwK95yMqdUQ73LqQ-36" vertex="1">
          <mxGeometry x="350.25" y="1575" width="98.5" height="30" as="geometry" />
        </mxCell>
        <mxCell id="itq3o5YylGLCOzRTKp7v-62" value="" style="edgeStyle=orthogonalEdgeStyle;rounded=0;orthogonalLoop=1;jettySize=auto;html=1;" parent="mvioNwK95yMqdUQ73LqQ-36" source="itq3o5YylGLCOzRTKp7v-58" target="itq3o5YylGLCOzRTKp7v-61" edge="1">
          <mxGeometry relative="1" as="geometry" />
        </mxCell>
        <mxCell id="itq3o5YylGLCOzRTKp7v-58" value="ราคาสมเหตุสมผล" style="rhombus;whiteSpace=wrap;html=1;fontFamily=Sarabun;fontSource=https%3A%2F%2Ffonts.googleapis.com%2Fcss%3Ffamily%3DSarabun;" parent="mvioNwK95yMqdUQ73LqQ-36" vertex="1">
          <mxGeometry x="349.5" y="1630" width="100" height="60" as="geometry" />
        </mxCell>
        <mxCell id="itq3o5YylGLCOzRTKp7v-66" value="" style="edgeStyle=orthogonalEdgeStyle;rounded=0;orthogonalLoop=1;jettySize=auto;html=1;" parent="mvioNwK95yMqdUQ73LqQ-36" source="itq3o5YylGLCOzRTKp7v-61" target="itq3o5YylGLCOzRTKp7v-65" edge="1">
          <mxGeometry relative="1" as="geometry" />
        </mxCell>
        <mxCell id="itq3o5YylGLCOzRTKp7v-61" value="ต่อราคา" style="rounded=0;whiteSpace=wrap;html=1;" parent="mvioNwK95yMqdUQ73LqQ-36" vertex="1">
          <mxGeometry x="471.5" y="1645" width="98.5" height="30" as="geometry" />
        </mxCell>
        <mxCell id="itq3o5YylGLCOzRTKp7v-64" value="" style="endArrow=classic;html=1;rounded=0;exitX=1;exitY=0.5;exitDx=0;exitDy=0;entryX=1;entryY=0.5;entryDx=0;entryDy=0;entryPerimeter=0;edgeStyle=orthogonalEdgeStyle;" parent="mvioNwK95yMqdUQ73LqQ-36" source="itq3o5YylGLCOzRTKp7v-25" target="itq3o5YylGLCOzRTKp7v-22" edge="1">
          <mxGeometry width="50" height="50" relative="1" as="geometry">
            <mxPoint x="291.5" y="870" as="sourcePoint" />
            <mxPoint x="341.5" y="820" as="targetPoint" />
            <Array as="points">
              <mxPoint x="370" y="1020" />
              <mxPoint x="370" y="735" />
            </Array>
          </mxGeometry>
        </mxCell>
        <mxCell id="itq3o5YylGLCOzRTKp7v-68" value="" style="edgeStyle=orthogonalEdgeStyle;rounded=0;orthogonalLoop=1;jettySize=auto;html=1;" parent="mvioNwK95yMqdUQ73LqQ-36" source="itq3o5YylGLCOzRTKp7v-65" target="itq3o5YylGLCOzRTKp7v-67" edge="1">
          <mxGeometry relative="1" as="geometry" />
        </mxCell>
        <mxCell id="itq3o5YylGLCOzRTKp7v-65" value="ลูกค้าตกลง" style="rhombus;whiteSpace=wrap;html=1;fontFamily=Sarabun;fontSource=https%3A%2F%2Ffonts.googleapis.com%2Fcss%3Ffamily%3DSarabun;" parent="mvioNwK95yMqdUQ73LqQ-36" vertex="1">
          <mxGeometry x="470.75" y="1710" width="100" height="60" as="geometry" />
        </mxCell>
        <mxCell id="itq3o5YylGLCOzRTKp7v-67" value="" style="strokeWidth=2;html=1;shape=mxgraph.flowchart.start_2;whiteSpace=wrap;" parent="mvioNwK95yMqdUQ73LqQ-36" vertex="1">
          <mxGeometry x="611.5" y="1730" width="20" height="20" as="geometry" />
        </mxCell>
        <mxCell id="itq3o5YylGLCOzRTKp7v-71" value="" style="endArrow=classic;html=1;rounded=0;entryX=0.5;entryY=0;entryDx=0;entryDy=0;entryPerimeter=0;exitX=0.5;exitY=1;exitDx=0;exitDy=0;exitPerimeter=0;" parent="mvioNwK95yMqdUQ73LqQ-36" source="sJf2TX4Br5fypYdwe0yf-30" target="itq3o5YylGLCOzRTKp7v-67" edge="1">
          <mxGeometry width="50" height="50" relative="1" as="geometry">
            <mxPoint x="601.5" y="920" as="sourcePoint" />
            <mxPoint x="551.5" y="1620" as="targetPoint" />
          </mxGeometry>
        </mxCell>
        <mxCell id="itq3o5YylGLCOzRTKp7v-79" value="" style="edgeStyle=orthogonalEdgeStyle;rounded=0;orthogonalLoop=1;jettySize=auto;html=1;entryX=0.5;entryY=0;entryDx=0;entryDy=0;" parent="mvioNwK95yMqdUQ73LqQ-36" source="itq3o5YylGLCOzRTKp7v-72" target="itq3o5YylGLCOzRTKp7v-77" edge="1">
          <mxGeometry relative="1" as="geometry" />
        </mxCell>
        <mxCell id="itq3o5YylGLCOzRTKp7v-72" value="" style="strokeWidth=2;html=1;shape=mxgraph.flowchart.start_2;whiteSpace=wrap;" parent="mvioNwK95yMqdUQ73LqQ-36" vertex="1">
          <mxGeometry x="262.13" y="1790" width="20" height="20" as="geometry" />
        </mxCell>
        <mxCell id="itq3o5YylGLCOzRTKp7v-75" value="" style="endArrow=classic;html=1;rounded=0;exitX=0.5;exitY=1;exitDx=0;exitDy=0;entryX=1;entryY=0.5;entryDx=0;entryDy=0;entryPerimeter=0;edgeStyle=orthogonalEdgeStyle;" parent="mvioNwK95yMqdUQ73LqQ-36" source="itq3o5YylGLCOzRTKp7v-65" target="itq3o5YylGLCOzRTKp7v-72" edge="1">
          <mxGeometry width="50" height="50" relative="1" as="geometry">
            <mxPoint x="361.5" y="1740" as="sourcePoint" />
            <mxPoint x="411.5" y="1690" as="targetPoint" />
          </mxGeometry>
        </mxCell>
        <mxCell id="itq3o5YylGLCOzRTKp7v-80" value="" style="edgeStyle=orthogonalEdgeStyle;rounded=0;orthogonalLoop=1;jettySize=auto;html=1;" parent="mvioNwK95yMqdUQ73LqQ-36" source="itq3o5YylGLCOzRTKp7v-77" target="itq3o5YylGLCOzRTKp7v-78" edge="1">
          <mxGeometry relative="1" as="geometry" />
        </mxCell>
        <mxCell id="itq3o5YylGLCOzRTKp7v-77" value="ทำสัญญาการจ้าง" style="rounded=0;whiteSpace=wrap;html=1;" parent="mvioNwK95yMqdUQ73LqQ-36" vertex="1">
          <mxGeometry x="222.88" y="1830" width="98.5" height="30" as="geometry" />
        </mxCell>
        <mxCell id="itq3o5YylGLCOzRTKp7v-85" value="" style="edgeStyle=orthogonalEdgeStyle;rounded=0;orthogonalLoop=1;jettySize=auto;html=1;" parent="mvioNwK95yMqdUQ73LqQ-36" source="itq3o5YylGLCOzRTKp7v-78" target="itq3o5YylGLCOzRTKp7v-84" edge="1">
          <mxGeometry relative="1" as="geometry" />
        </mxCell>
        <mxCell id="itq3o5YylGLCOzRTKp7v-78" value="ลูกค้าเซ็นสัญญา" style="rhombus;whiteSpace=wrap;html=1;fontFamily=Sarabun;fontSource=https%3A%2F%2Ffonts.googleapis.com%2Fcss%3Ffamily%3DSarabun;" parent="mvioNwK95yMqdUQ73LqQ-36" vertex="1">
          <mxGeometry x="222.13" y="1890" width="100" height="60" as="geometry" />
        </mxCell>
        <mxCell id="itq3o5YylGLCOzRTKp7v-81" value="" style="strokeWidth=2;html=1;shape=mxgraph.flowchart.start_2;whiteSpace=wrap;" parent="mvioNwK95yMqdUQ73LqQ-36" vertex="1">
          <mxGeometry x="611.5" y="1910" width="20" height="20" as="geometry" />
        </mxCell>
        <mxCell id="itq3o5YylGLCOzRTKp7v-82" value="" style="endArrow=classic;html=1;rounded=0;exitX=1;exitY=0.5;exitDx=0;exitDy=0;entryX=0;entryY=0.5;entryDx=0;entryDy=0;entryPerimeter=0;" parent="mvioNwK95yMqdUQ73LqQ-36" source="itq3o5YylGLCOzRTKp7v-78" target="itq3o5YylGLCOzRTKp7v-81" edge="1">
          <mxGeometry width="50" height="50" relative="1" as="geometry">
            <mxPoint x="341.5" y="1930" as="sourcePoint" />
            <mxPoint x="391.5" y="1880" as="targetPoint" />
          </mxGeometry>
        </mxCell>
        <mxCell id="itq3o5YylGLCOzRTKp7v-87" value="" style="edgeStyle=orthogonalEdgeStyle;rounded=0;orthogonalLoop=1;jettySize=auto;html=1;" parent="mvioNwK95yMqdUQ73LqQ-36" source="itq3o5YylGLCOzRTKp7v-84" target="itq3o5YylGLCOzRTKp7v-86" edge="1">
          <mxGeometry relative="1" as="geometry" />
        </mxCell>
        <mxCell id="itq3o5YylGLCOzRTKp7v-84" value="เรียกเงินมัดจำ" style="rounded=0;whiteSpace=wrap;html=1;" parent="mvioNwK95yMqdUQ73LqQ-36" vertex="1">
          <mxGeometry x="222.88" y="1990" width="98.5" height="30" as="geometry" />
        </mxCell>
        <mxCell id="itq3o5YylGLCOzRTKp7v-102" value="" style="edgeStyle=orthogonalEdgeStyle;rounded=0;orthogonalLoop=1;jettySize=auto;html=1;entryX=0.5;entryY=0;entryDx=0;entryDy=0;entryPerimeter=0;" parent="mvioNwK95yMqdUQ73LqQ-36" source="itq3o5YylGLCOzRTKp7v-86" edge="1">
          <mxGeometry relative="1" as="geometry">
            <mxPoint x="271.62" y="2140" as="targetPoint" />
          </mxGeometry>
        </mxCell>
        <mxCell id="itq3o5YylGLCOzRTKp7v-86" value="ลูกค้าจ่ายเงินมัดจำ" style="rhombus;whiteSpace=wrap;html=1;fontFamily=Sarabun;fontSource=https%3A%2F%2Ffonts.googleapis.com%2Fcss%3Ffamily%3DSarabun;" parent="mvioNwK95yMqdUQ73LqQ-36" vertex="1">
          <mxGeometry x="207.13" y="2050" width="130" height="70" as="geometry" />
        </mxCell>
        <mxCell id="sJf2TX4Br5fypYdwe0yf-19" value="" style="edgeStyle=orthogonalEdgeStyle;rounded=0;orthogonalLoop=1;jettySize=auto;html=1;" edge="1" parent="mvioNwK95yMqdUQ73LqQ-36" source="itq3o5YylGLCOzRTKp7v-88" target="sJf2TX4Br5fypYdwe0yf-18">
          <mxGeometry relative="1" as="geometry" />
        </mxCell>
        <mxCell id="itq3o5YylGLCOzRTKp7v-88" value="" style="strokeWidth=2;html=1;shape=mxgraph.flowchart.start_2;whiteSpace=wrap;" parent="mvioNwK95yMqdUQ73LqQ-36" vertex="1">
          <mxGeometry x="611.5" y="2075" width="20" height="20" as="geometry" />
        </mxCell>
        <mxCell id="itq3o5YylGLCOzRTKp7v-89" value="" style="endArrow=classic;html=1;rounded=0;exitX=1;exitY=0.5;exitDx=0;exitDy=0;entryX=0;entryY=0.5;entryDx=0;entryDy=0;entryPerimeter=0;" parent="mvioNwK95yMqdUQ73LqQ-36" source="itq3o5YylGLCOzRTKp7v-86" target="itq3o5YylGLCOzRTKp7v-88" edge="1">
          <mxGeometry width="50" height="50" relative="1" as="geometry">
            <mxPoint x="320.88" y="2085" as="sourcePoint" />
            <mxPoint x="389.88" y="2045" as="targetPoint" />
          </mxGeometry>
        </mxCell>
        <mxCell id="itq3o5YylGLCOzRTKp7v-90" value="" style="endArrow=classic;html=1;rounded=0;exitX=0.5;exitY=1;exitDx=0;exitDy=0;exitPerimeter=0;entryX=0.5;entryY=0;entryDx=0;entryDy=0;entryPerimeter=0;" parent="mvioNwK95yMqdUQ73LqQ-36" source="itq3o5YylGLCOzRTKp7v-67" target="itq3o5YylGLCOzRTKp7v-81" edge="1">
          <mxGeometry width="50" height="50" relative="1" as="geometry">
            <mxPoint x="381.5" y="1860" as="sourcePoint" />
            <mxPoint x="431.5" y="1810" as="targetPoint" />
          </mxGeometry>
        </mxCell>
        <mxCell id="itq3o5YylGLCOzRTKp7v-92" style="edgeStyle=orthogonalEdgeStyle;rounded=0;orthogonalLoop=1;jettySize=auto;html=1;exitX=0.5;exitY=1;exitDx=0;exitDy=0;exitPerimeter=0;entryX=0.5;entryY=0;entryDx=0;entryDy=0;entryPerimeter=0;" parent="mvioNwK95yMqdUQ73LqQ-36" source="itq3o5YylGLCOzRTKp7v-81" target="itq3o5YylGLCOzRTKp7v-88" edge="1">
          <mxGeometry relative="1" as="geometry" />
        </mxCell>
        <mxCell id="itq3o5YylGLCOzRTKp7v-111" value="" style="edgeStyle=orthogonalEdgeStyle;rounded=0;orthogonalLoop=1;jettySize=auto;html=1;exitX=0.5;exitY=1;exitDx=0;exitDy=0;exitPerimeter=0;" parent="mvioNwK95yMqdUQ73LqQ-36" source="sJf2TX4Br5fypYdwe0yf-1" target="itq3o5YylGLCOzRTKp7v-110" edge="1">
          <mxGeometry relative="1" as="geometry">
            <mxPoint x="270.7758620689656" y="2220" as="sourcePoint" />
          </mxGeometry>
        </mxCell>
        <mxCell id="itq3o5YylGLCOzRTKp7v-98" value="" style="edgeStyle=orthogonalEdgeStyle;rounded=0;orthogonalLoop=1;jettySize=auto;html=1;" parent="mvioNwK95yMqdUQ73LqQ-36" source="itq3o5YylGLCOzRTKp7v-96" target="itq3o5YylGLCOzRTKp7v-53" edge="1">
          <mxGeometry relative="1" as="geometry" />
        </mxCell>
        <mxCell id="itq3o5YylGLCOzRTKp7v-96" value="กำหนดวันส่งงาน" style="rounded=0;whiteSpace=wrap;html=1;" parent="mvioNwK95yMqdUQ73LqQ-36" vertex="1">
          <mxGeometry x="222.25" y="1430" width="98.75" height="30" as="geometry" />
        </mxCell>
        <mxCell id="itq3o5YylGLCOzRTKp7v-103" value="" style="edgeStyle=orthogonalEdgeStyle;rounded=0;orthogonalLoop=1;jettySize=auto;html=1;" parent="mvioNwK95yMqdUQ73LqQ-36" edge="1">
          <mxGeometry relative="1" as="geometry">
            <mxPoint x="271.603448275862" y="2160" as="sourcePoint" />
            <mxPoint x="270.7758620689656" y="2190" as="targetPoint" />
          </mxGeometry>
        </mxCell>
        <mxCell id="sJf2TX4Br5fypYdwe0yf-7" value="" style="edgeStyle=orthogonalEdgeStyle;rounded=0;orthogonalLoop=1;jettySize=auto;html=1;" edge="1" parent="mvioNwK95yMqdUQ73LqQ-36" source="itq3o5YylGLCOzRTKp7v-104" target="sJf2TX4Br5fypYdwe0yf-6">
          <mxGeometry relative="1" as="geometry" />
        </mxCell>
        <mxCell id="itq3o5YylGLCOzRTKp7v-104" value="ลูกค้าพอใจ" style="rhombus;whiteSpace=wrap;html=1;fontFamily=Sarabun;fontSource=https%3A%2F%2Ffonts.googleapis.com%2Fcss%3Ffamily%3DSarabun;" parent="mvioNwK95yMqdUQ73LqQ-36" vertex="1">
          <mxGeometry x="215" y="2320" width="114.25" height="60" as="geometry" />
        </mxCell>
        <mxCell id="itq3o5YylGLCOzRTKp7v-112" value="" style="edgeStyle=orthogonalEdgeStyle;rounded=0;orthogonalLoop=1;jettySize=auto;html=1;" parent="mvioNwK95yMqdUQ73LqQ-36" source="itq3o5YylGLCOzRTKp7v-110" target="itq3o5YylGLCOzRTKp7v-104" edge="1">
          <mxGeometry relative="1" as="geometry" />
        </mxCell>
        <mxCell id="itq3o5YylGLCOzRTKp7v-110" value="เสนอโครงร่างให้ลูกค้า" style="rounded=0;whiteSpace=wrap;html=1;" parent="mvioNwK95yMqdUQ73LqQ-36" vertex="1">
          <mxGeometry x="209.69" y="2250" width="124.88" height="30" as="geometry" />
        </mxCell>
        <mxCell id="sJf2TX4Br5fypYdwe0yf-0" value="ทำโครงร่างเว็บคร่าวๆ" style="rounded=0;whiteSpace=wrap;html=1;" vertex="1" parent="mvioNwK95yMqdUQ73LqQ-36">
          <mxGeometry x="217.42999999999995" y="2140" width="110" height="30" as="geometry" />
        </mxCell>
        <mxCell id="sJf2TX4Br5fypYdwe0yf-1" value="" style="strokeWidth=2;html=1;shape=mxgraph.flowchart.start_2;whiteSpace=wrap;" vertex="1" parent="mvioNwK95yMqdUQ73LqQ-36">
          <mxGeometry x="261.37" y="2190" width="20" height="20" as="geometry" />
        </mxCell>
        <mxCell id="sJf2TX4Br5fypYdwe0yf-3" value="แก้โครงร่างเว็บ" style="rounded=0;whiteSpace=wrap;html=1;" vertex="1" parent="mvioNwK95yMqdUQ73LqQ-36">
          <mxGeometry x="353" y="2290" width="110" height="30" as="geometry" />
        </mxCell>
        <mxCell id="sJf2TX4Br5fypYdwe0yf-4" value="" style="endArrow=classic;html=1;rounded=0;exitX=1;exitY=0.5;exitDx=0;exitDy=0;entryX=0.5;entryY=1;entryDx=0;entryDy=0;edgeStyle=orthogonalEdgeStyle;" edge="1" parent="mvioNwK95yMqdUQ73LqQ-36" source="itq3o5YylGLCOzRTKp7v-104" target="sJf2TX4Br5fypYdwe0yf-3">
          <mxGeometry width="50" height="50" relative="1" as="geometry">
            <mxPoint x="361.5" y="2280" as="sourcePoint" />
            <mxPoint x="411.5" y="2230" as="targetPoint" />
          </mxGeometry>
        </mxCell>
        <mxCell id="sJf2TX4Br5fypYdwe0yf-5" value="" style="endArrow=classic;html=1;rounded=0;exitX=0.5;exitY=0;exitDx=0;exitDy=0;entryX=1;entryY=0.5;entryDx=0;entryDy=0;entryPerimeter=0;edgeStyle=orthogonalEdgeStyle;" edge="1" parent="mvioNwK95yMqdUQ73LqQ-36" source="sJf2TX4Br5fypYdwe0yf-3" target="sJf2TX4Br5fypYdwe0yf-1">
          <mxGeometry width="50" height="50" relative="1" as="geometry">
            <mxPoint x="361.5" y="2280" as="sourcePoint" />
            <mxPoint x="411.5" y="2230" as="targetPoint" />
          </mxGeometry>
        </mxCell>
        <mxCell id="sJf2TX4Br5fypYdwe0yf-9" value="" style="edgeStyle=orthogonalEdgeStyle;rounded=0;orthogonalLoop=1;jettySize=auto;html=1;" edge="1" parent="mvioNwK95yMqdUQ73LqQ-36" source="sJf2TX4Br5fypYdwe0yf-6" target="sJf2TX4Br5fypYdwe0yf-8">
          <mxGeometry relative="1" as="geometry" />
        </mxCell>
        <mxCell id="sJf2TX4Br5fypYdwe0yf-6" value="พัฒนาเว็บไซต์" style="rounded=0;whiteSpace=wrap;html=1;" vertex="1" parent="mvioNwK95yMqdUQ73LqQ-36">
          <mxGeometry x="217.43" y="2410" width="110" height="30" as="geometry" />
        </mxCell>
        <mxCell id="sJf2TX4Br5fypYdwe0yf-11" value="" style="edgeStyle=orthogonalEdgeStyle;rounded=0;orthogonalLoop=1;jettySize=auto;html=1;" edge="1" parent="mvioNwK95yMqdUQ73LqQ-36" source="sJf2TX4Br5fypYdwe0yf-8" target="sJf2TX4Br5fypYdwe0yf-10">
          <mxGeometry relative="1" as="geometry" />
        </mxCell>
        <mxCell id="sJf2TX4Br5fypYdwe0yf-8" value="ส่งงานลูกค้า" style="rounded=0;whiteSpace=wrap;html=1;" vertex="1" parent="mvioNwK95yMqdUQ73LqQ-36">
          <mxGeometry x="217.43000000000006" y="2470" width="110" height="30" as="geometry" />
        </mxCell>
        <mxCell id="sJf2TX4Br5fypYdwe0yf-13" value="" style="edgeStyle=orthogonalEdgeStyle;rounded=0;orthogonalLoop=1;jettySize=auto;html=1;" edge="1" parent="mvioNwK95yMqdUQ73LqQ-36" source="sJf2TX4Br5fypYdwe0yf-10" target="sJf2TX4Br5fypYdwe0yf-12">
          <mxGeometry relative="1" as="geometry" />
        </mxCell>
        <mxCell id="sJf2TX4Br5fypYdwe0yf-10" value="เรียกเงินส่วนที่เหลือ" style="rounded=0;whiteSpace=wrap;html=1;" vertex="1" parent="mvioNwK95yMqdUQ73LqQ-36">
          <mxGeometry x="222.88" y="2530" width="98.5" height="30" as="geometry" />
        </mxCell>
        <mxCell id="sJf2TX4Br5fypYdwe0yf-16" value="" style="edgeStyle=orthogonalEdgeStyle;rounded=0;orthogonalLoop=1;jettySize=auto;html=1;" edge="1" parent="mvioNwK95yMqdUQ73LqQ-36" source="sJf2TX4Br5fypYdwe0yf-12" target="sJf2TX4Br5fypYdwe0yf-15">
          <mxGeometry relative="1" as="geometry" />
        </mxCell>
        <mxCell id="sJf2TX4Br5fypYdwe0yf-21" value="" style="edgeStyle=orthogonalEdgeStyle;rounded=0;orthogonalLoop=1;jettySize=auto;html=1;" edge="1" parent="mvioNwK95yMqdUQ73LqQ-36" source="sJf2TX4Br5fypYdwe0yf-12" target="sJf2TX4Br5fypYdwe0yf-20">
          <mxGeometry relative="1" as="geometry" />
        </mxCell>
        <mxCell id="sJf2TX4Br5fypYdwe0yf-12" value="ลูกค้าจ่าย" style="rhombus;whiteSpace=wrap;html=1;fontFamily=Sarabun;fontSource=https%3A%2F%2Ffonts.googleapis.com%2Fcss%3Ffamily%3DSarabun;" vertex="1" parent="mvioNwK95yMqdUQ73LqQ-36">
          <mxGeometry x="214.25" y="2590" width="114.25" height="60" as="geometry" />
        </mxCell>
        <mxCell id="sJf2TX4Br5fypYdwe0yf-17" value="" style="edgeStyle=orthogonalEdgeStyle;rounded=0;orthogonalLoop=1;jettySize=auto;html=1;" edge="1" parent="mvioNwK95yMqdUQ73LqQ-36" source="sJf2TX4Br5fypYdwe0yf-15" target="mvioNwK95yMqdUQ73LqQ-69">
          <mxGeometry relative="1" as="geometry" />
        </mxCell>
        <mxCell id="sJf2TX4Br5fypYdwe0yf-15" value="" style="strokeWidth=2;html=1;shape=mxgraph.flowchart.start_2;whiteSpace=wrap;" vertex="1" parent="mvioNwK95yMqdUQ73LqQ-36">
          <mxGeometry x="261.37" y="2690" width="20" height="20" as="geometry" />
        </mxCell>
        <mxCell id="sJf2TX4Br5fypYdwe0yf-18" value="ปฏิเสธงาน" style="rounded=0;whiteSpace=wrap;html=1;" vertex="1" parent="mvioNwK95yMqdUQ73LqQ-36">
          <mxGeometry x="561.5" y="2150" width="120" height="30" as="geometry" />
        </mxCell>
        <mxCell id="sJf2TX4Br5fypYdwe0yf-20" value="ดำเนินคดีทางกฎหมาย" style="rounded=0;whiteSpace=wrap;html=1;" vertex="1" parent="mvioNwK95yMqdUQ73LqQ-36">
          <mxGeometry x="371.5" y="2605" width="120" height="30" as="geometry" />
        </mxCell>
        <mxCell id="sJf2TX4Br5fypYdwe0yf-22" style="rounded=0;orthogonalLoop=1;jettySize=auto;html=1;exitX=0.5;exitY=1;exitDx=0;exitDy=0;entryX=0.855;entryY=0.145;entryDx=0;entryDy=0;entryPerimeter=0;" edge="1" parent="mvioNwK95yMqdUQ73LqQ-36" source="sJf2TX4Br5fypYdwe0yf-20" target="sJf2TX4Br5fypYdwe0yf-15">
          <mxGeometry relative="1" as="geometry">
            <Array as="points">
              <mxPoint x="431.5" y="2650" />
            </Array>
          </mxGeometry>
        </mxCell>
        <mxCell id="sJf2TX4Br5fypYdwe0yf-25" value="" style="endArrow=classic;html=1;rounded=0;exitX=0.5;exitY=1;exitDx=0;exitDy=0;entryX=1;entryY=0.5;entryDx=0;entryDy=0;entryPerimeter=0;edgeStyle=orthogonalEdgeStyle;" edge="1" parent="mvioNwK95yMqdUQ73LqQ-36" source="sJf2TX4Br5fypYdwe0yf-18" target="sJf2TX4Br5fypYdwe0yf-15">
          <mxGeometry width="50" height="50" relative="1" as="geometry">
            <mxPoint x="481.5" y="2490" as="sourcePoint" />
            <mxPoint x="531.5" y="2440" as="targetPoint" />
          </mxGeometry>
        </mxCell>
        <mxCell id="sJf2TX4Br5fypYdwe0yf-26" value="จริง" style="edgeLabel;html=1;align=center;verticalAlign=middle;resizable=0;points=[];fontFamily=Sarabun;fontSource=https%3A%2F%2Ffonts.googleapis.com%2Fcss%3Ffamily%3DSarabun;" vertex="1" connectable="0" parent="mvioNwK95yMqdUQ73LqQ-36">
          <mxGeometry x="271.37" y="360" as="geometry" />
        </mxCell>
        <mxCell id="sJf2TX4Br5fypYdwe0yf-28" value="จริง" style="edgeLabel;html=1;align=center;verticalAlign=middle;resizable=0;points=[];fontFamily=Sarabun;fontSource=https%3A%2F%2Ffonts.googleapis.com%2Fcss%3Ffamily%3DSarabun;" vertex="1" connectable="0" parent="mvioNwK95yMqdUQ73LqQ-36">
          <mxGeometry x="271.37" y="620" as="geometry" />
        </mxCell>
        <mxCell id="sJf2TX4Br5fypYdwe0yf-29" value="จริง" style="edgeLabel;html=1;align=center;verticalAlign=middle;resizable=0;points=[];fontFamily=Sarabun;fontSource=https%3A%2F%2Ffonts.googleapis.com%2Fcss%3Ffamily%3DSarabun;" vertex="1" connectable="0" parent="mvioNwK95yMqdUQ73LqQ-36">
          <mxGeometry x="271.37" y="710" as="geometry" />
        </mxCell>
        <mxCell id="sJf2TX4Br5fypYdwe0yf-30" value="" style="strokeWidth=2;html=1;shape=mxgraph.flowchart.start_2;whiteSpace=wrap;" vertex="1" parent="mvioNwK95yMqdUQ73LqQ-36">
          <mxGeometry x="611.5" y="655" width="20" height="20" as="geometry" />
        </mxCell>
        <mxCell id="sJf2TX4Br5fypYdwe0yf-31" value="" style="endArrow=classic;html=1;rounded=0;entryX=0.5;entryY=0;entryDx=0;entryDy=0;entryPerimeter=0;exitX=0.5;exitY=1;exitDx=0;exitDy=0;exitPerimeter=0;" edge="1" parent="mvioNwK95yMqdUQ73LqQ-36" source="itq3o5YylGLCOzRTKp7v-0" target="sJf2TX4Br5fypYdwe0yf-30">
          <mxGeometry width="50" height="50" relative="1" as="geometry">
            <mxPoint x="-198" y="1160" as="sourcePoint" />
            <mxPoint x="-198" y="2300" as="targetPoint" />
          </mxGeometry>
        </mxCell>
        <mxCell id="sJf2TX4Br5fypYdwe0yf-32" value="" style="endArrow=classic;html=1;rounded=0;exitX=1;exitY=0.5;exitDx=0;exitDy=0;entryX=0;entryY=0.5;entryDx=0;entryDy=0;entryPerimeter=0;" edge="1" parent="mvioNwK95yMqdUQ73LqQ-36" source="itq3o5YylGLCOzRTKp7v-15" target="sJf2TX4Br5fypYdwe0yf-30">
          <mxGeometry width="50" height="50" relative="1" as="geometry">
            <mxPoint x="500" y="770" as="sourcePoint" />
            <mxPoint x="550" y="720" as="targetPoint" />
          </mxGeometry>
        </mxCell>
        <mxCell id="sJf2TX4Br5fypYdwe0yf-33" value="จริง" style="edgeLabel;html=1;align=center;verticalAlign=middle;resizable=0;points=[];fontFamily=Sarabun;fontSource=https%3A%2F%2Ffonts.googleapis.com%2Fcss%3Ffamily%3DSarabun;" vertex="1" connectable="0" parent="mvioNwK95yMqdUQ73LqQ-36">
          <mxGeometry x="440" y="970" as="geometry">
            <mxPoint x="-167" y="88" as="offset" />
          </mxGeometry>
        </mxCell>
        <mxCell id="sJf2TX4Br5fypYdwe0yf-34" value="จริง" style="edgeLabel;html=1;align=center;verticalAlign=middle;resizable=0;points=[];fontFamily=Sarabun;fontSource=https%3A%2F%2Ffonts.googleapis.com%2Fcss%3Ffamily%3DSarabun;" vertex="1" connectable="0" parent="mvioNwK95yMqdUQ73LqQ-36">
          <mxGeometry x="271.37" y="1630" as="geometry" />
        </mxCell>
        <mxCell id="sJf2TX4Br5fypYdwe0yf-35" value="" style="endArrow=classic;html=1;rounded=0;exitX=0.5;exitY=1;exitDx=0;exitDy=0;entryX=0.855;entryY=0.145;entryDx=0;entryDy=0;entryPerimeter=0;" edge="1" parent="mvioNwK95yMqdUQ73LqQ-36" source="itq3o5YylGLCOzRTKp7v-58" target="itq3o5YylGLCOzRTKp7v-72">
          <mxGeometry width="50" height="50" relative="1" as="geometry">
            <mxPoint x="340" y="1750" as="sourcePoint" />
            <mxPoint x="330" y="1750" as="targetPoint" />
            <Array as="points">
              <mxPoint x="400" y="1710" />
            </Array>
          </mxGeometry>
        </mxCell>
        <mxCell id="sJf2TX4Br5fypYdwe0yf-36" value="จริง" style="edgeLabel;html=1;align=center;verticalAlign=middle;resizable=0;points=[];fontFamily=Sarabun;fontSource=https%3A%2F%2Ffonts.googleapis.com%2Fcss%3Ffamily%3DSarabun;" vertex="1" connectable="0" parent="mvioNwK95yMqdUQ73LqQ-36">
          <mxGeometry x="399.5" y="1700" as="geometry">
            <mxPoint x="3" as="offset" />
          </mxGeometry>
        </mxCell>
        <mxCell id="sJf2TX4Br5fypYdwe0yf-37" value="จริง" style="edgeLabel;html=1;align=center;verticalAlign=middle;resizable=0;points=[];fontFamily=Sarabun;fontSource=https%3A%2F%2Ffonts.googleapis.com%2Fcss%3Ffamily%3DSarabun;" vertex="1" connectable="0" parent="mvioNwK95yMqdUQ73LqQ-36">
          <mxGeometry x="520.75" y="1780" as="geometry" />
        </mxCell>
        <mxCell id="sJf2TX4Br5fypYdwe0yf-38" value="จริง" style="edgeLabel;html=1;align=center;verticalAlign=middle;resizable=0;points=[];fontFamily=Sarabun;fontSource=https%3A%2F%2Ffonts.googleapis.com%2Fcss%3Ffamily%3DSarabun;" vertex="1" connectable="0" parent="mvioNwK95yMqdUQ73LqQ-36">
          <mxGeometry x="271.37" y="1960" as="geometry" />
        </mxCell>
        <mxCell id="sJf2TX4Br5fypYdwe0yf-39" value="จริง" style="edgeLabel;html=1;align=center;verticalAlign=middle;resizable=0;points=[];fontFamily=Sarabun;fontSource=https%3A%2F%2Ffonts.googleapis.com%2Fcss%3Ffamily%3DSarabun;" vertex="1" connectable="0" parent="mvioNwK95yMqdUQ73LqQ-36">
          <mxGeometry x="281.37" y="2120" as="geometry" />
        </mxCell>
        <mxCell id="sJf2TX4Br5fypYdwe0yf-40" value="จริง" style="edgeLabel;html=1;align=center;verticalAlign=middle;resizable=0;points=[];fontFamily=Sarabun;fontSource=https%3A%2F%2Ffonts.googleapis.com%2Fcss%3Ffamily%3DSarabun;" vertex="1" connectable="0" parent="mvioNwK95yMqdUQ73LqQ-36">
          <mxGeometry x="271.37" y="2390" as="geometry" />
        </mxCell>
        <mxCell id="sJf2TX4Br5fypYdwe0yf-41" value="จริง" style="edgeLabel;html=1;align=center;verticalAlign=middle;resizable=0;points=[];fontFamily=Sarabun;fontSource=https%3A%2F%2Ffonts.googleapis.com%2Fcss%3Ffamily%3DSarabun;" vertex="1" connectable="0" parent="mvioNwK95yMqdUQ73LqQ-36">
          <mxGeometry x="271.37" y="2660" as="geometry" />
        </mxCell>
        <mxCell id="sJf2TX4Br5fypYdwe0yf-42" value="&lt;font data-font-src=&quot;https://fonts.googleapis.com/css?family=Sarabun&quot; face=&quot;Sarabun&quot;&gt;เท็จ&lt;/font&gt;" style="edgeLabel;html=1;align=center;verticalAlign=middle;resizable=0;points=[];" vertex="1" connectable="0" parent="mvioNwK95yMqdUQ73LqQ-36">
          <mxGeometry x="209.69000000000005" y="320" as="geometry" />
        </mxCell>
        <mxCell id="sJf2TX4Br5fypYdwe0yf-43" value="&lt;font data-font-src=&quot;https://fonts.googleapis.com/css?family=Sarabun&quot; face=&quot;Sarabun&quot;&gt;เท็จ&lt;/font&gt;" style="edgeLabel;html=1;align=center;verticalAlign=middle;resizable=0;points=[];" vertex="1" connectable="0" parent="mvioNwK95yMqdUQ73LqQ-36">
          <mxGeometry x="340.25" y="580" as="geometry" />
        </mxCell>
        <mxCell id="sJf2TX4Br5fypYdwe0yf-44" value="&lt;font data-font-src=&quot;https://fonts.googleapis.com/css?family=Sarabun&quot; face=&quot;Sarabun&quot;&gt;เท็จ&lt;/font&gt;" style="edgeLabel;html=1;align=center;verticalAlign=middle;resizable=0;points=[];" vertex="1" connectable="0" parent="mvioNwK95yMqdUQ73LqQ-36">
          <mxGeometry x="360" y="665" as="geometry" />
        </mxCell>
        <mxCell id="sJf2TX4Br5fypYdwe0yf-45" value="&lt;font data-font-src=&quot;https://fonts.googleapis.com/css?family=Sarabun&quot; face=&quot;Sarabun&quot;&gt;เท็จ&lt;/font&gt;" style="edgeLabel;html=1;align=center;verticalAlign=middle;resizable=0;points=[];" vertex="1" connectable="0" parent="mvioNwK95yMqdUQ73LqQ-36">
          <mxGeometry x="337.13" y="1020" as="geometry" />
        </mxCell>
        <mxCell id="sJf2TX4Br5fypYdwe0yf-46" value="&lt;font data-font-src=&quot;https://fonts.googleapis.com/css?family=Sarabun&quot; face=&quot;Sarabun&quot;&gt;เท็จ&lt;/font&gt;" style="edgeLabel;html=1;align=center;verticalAlign=middle;resizable=0;points=[];" vertex="1" connectable="0" parent="mvioNwK95yMqdUQ73LqQ-36">
          <mxGeometry x="329.25" y="1590" as="geometry" />
        </mxCell>
        <mxCell id="sJf2TX4Br5fypYdwe0yf-47" value="&lt;font data-font-src=&quot;https://fonts.googleapis.com/css?family=Sarabun&quot; face=&quot;Sarabun&quot;&gt;เท็จ&lt;/font&gt;" style="edgeLabel;html=1;align=center;verticalAlign=middle;resizable=0;points=[];" vertex="1" connectable="0" parent="mvioNwK95yMqdUQ73LqQ-36">
          <mxGeometry x="449.5" y="1650" as="geometry" />
        </mxCell>
        <mxCell id="sJf2TX4Br5fypYdwe0yf-48" value="&lt;font data-font-src=&quot;https://fonts.googleapis.com/css?family=Sarabun&quot; face=&quot;Sarabun&quot;&gt;เท็จ&lt;/font&gt;" style="edgeLabel;html=1;align=center;verticalAlign=middle;resizable=0;points=[];" vertex="1" connectable="0" parent="mvioNwK95yMqdUQ73LqQ-36">
          <mxGeometry x="590" y="1740" as="geometry" />
        </mxCell>
        <mxCell id="sJf2TX4Br5fypYdwe0yf-49" value="&lt;font data-font-src=&quot;https://fonts.googleapis.com/css?family=Sarabun&quot; face=&quot;Sarabun&quot;&gt;เท็จ&lt;/font&gt;" style="edgeLabel;html=1;align=center;verticalAlign=middle;resizable=0;points=[];" vertex="1" connectable="0" parent="mvioNwK95yMqdUQ73LqQ-36">
          <mxGeometry x="340.25" y="1920" as="geometry" />
        </mxCell>
        <mxCell id="sJf2TX4Br5fypYdwe0yf-50" value="&lt;font data-font-src=&quot;https://fonts.googleapis.com/css?family=Sarabun&quot; face=&quot;Sarabun&quot;&gt;เท็จ&lt;/font&gt;" style="edgeLabel;html=1;align=center;verticalAlign=middle;resizable=0;points=[];" vertex="1" connectable="0" parent="mvioNwK95yMqdUQ73LqQ-36">
          <mxGeometry x="346.5" y="2085" as="geometry" />
        </mxCell>
        <mxCell id="sJf2TX4Br5fypYdwe0yf-51" value="&lt;font data-font-src=&quot;https://fonts.googleapis.com/css?family=Sarabun&quot; face=&quot;Sarabun&quot;&gt;เท็จ&lt;/font&gt;" style="edgeLabel;html=1;align=center;verticalAlign=middle;resizable=0;points=[];" vertex="1" connectable="0" parent="mvioNwK95yMqdUQ73LqQ-36">
          <mxGeometry x="346.5" y="2350" as="geometry" />
        </mxCell>
        <mxCell id="sJf2TX4Br5fypYdwe0yf-52" value="&lt;font data-font-src=&quot;https://fonts.googleapis.com/css?family=Sarabun&quot; face=&quot;Sarabun&quot;&gt;เท็จ&lt;/font&gt;" style="edgeLabel;html=1;align=center;verticalAlign=middle;resizable=0;points=[];" vertex="1" connectable="0" parent="mvioNwK95yMqdUQ73LqQ-36">
          <mxGeometry x="339" y="2620" as="geometry" />
        </mxCell>
        <mxCell id="mvioNwK95yMqdUQ73LqQ-70" value="&lt;font data-font-src=&quot;https://fonts.googleapis.com/css?family=Sarabun&quot; face=&quot;Sarabun&quot;&gt;โจทย์ปัญหา&lt;/font&gt;" style="swimlane;whiteSpace=wrap;html=1;" parent="WIyWlLk6GJQsqaUBKTNV-1" vertex="1">
          <mxGeometry x="-732.5" y="320" width="675" height="190" as="geometry" />
        </mxCell>
        <mxCell id="mvioNwK95yMqdUQ73LqQ-71" value="&lt;p style=&quot;line-height: 120%;&quot;&gt;&lt;font data-font-src=&quot;https://fonts.googleapis.com/css?family=Sarabun&quot; face=&quot;Sarabun&quot; style=&quot;font-size: 14px;&quot;&gt;&lt;b&gt;&lt;u&gt;โจทย์&lt;/u&gt;&lt;/b&gt; จงเขียน Flowchart เพื่ออธิบายกระบวนการในการรับงานทำเว็บไซต์จากลูกค้า&lt;br&gt;&amp;nbsp; &amp;nbsp; &amp;nbsp; &amp;nbsp; &amp;nbsp; (ดูตัวอย่างได้จากเว็บไซท์ https://www.fastwork.com)&lt;br&gt;&lt;/font&gt;&lt;br&gt;&lt;/p&gt;&lt;p style=&quot;line-height: 120%;&quot;&gt;&lt;font face=&quot;Sarabun&quot;&gt;&lt;b&gt;&lt;u&gt;หมายเหตุ&lt;/u&gt;&lt;/b&gt;&amp;nbsp;ควรมีขั้นตอนครบถ้วน เปรียบเสมือนตัวคุณเอง ที่กำลังอยากเริ่มต้นรับงานทำเว็บไซต์จากลูกค้าของคุณเอง&lt;br&gt;&amp;nbsp; &amp;nbsp; &amp;nbsp; &amp;nbsp; คุณจะต้องคำนึงถึงขั้นตอนทุกอย่างให้รอบคอบตั้งแต่การโพสหางาน การพูดคุยเพื่อคัดกรองลูกค้า&lt;br&gt;&amp;nbsp; &amp;nbsp; &amp;nbsp; &amp;nbsp; การพูดคุยเรื่องความต้องการของลูกค้าเป็นข้อๆให้ชัดเจน การเซ็นต์สัญญารับงาน การรับเงินล่วงหน้าก่อน ฯลฯ&lt;/font&gt;&lt;/p&gt;&lt;p style=&quot;line-height: 120%;&quot;&gt;&lt;font face=&quot;Sarabun&quot;&gt;&lt;br&gt;&lt;/font&gt;&lt;/p&gt;" style="text;html=1;align=left;verticalAlign=top;resizable=0;points=[];autosize=1;strokeColor=none;fillColor=none;fontSize=14;" parent="mvioNwK95yMqdUQ73LqQ-70" vertex="1">
          <mxGeometry x="15" y="20" width="660" height="200" as="geometry" />
        </mxCell>
      </root>
    </mxGraphModel>
  </diagram>
</mxfile>
